<svg width="115" height="40" viewBox="0 0 115 40" fill="none" xmlns="http://www.w3.org/2000/svg">
<g clip-path="url(#clip0_4007_1253)">
<path d="M52.645 0H57.748V32.3265H52.645V0Z" fill="#212322"/>
<path d="M0.666626 16.7946V11.6916H21.1875V15.4109L8.29004 30.7164H21.1875V35.8194H0.666626V32.1036L13.5727 16.7946H0.666626Z" fill="#212322"/>
<path d="M66.9746 7.6735H61.8716V40H66.9746V7.6735Z" fill="#212322"/>
<path d="M105.202 14.4678C107.348 12.203 110.06 11.1441 113.496 11.2339L114.335 11.2529V16.4285L113.466 16.4164C112.085 16.4181 107.406 16.7636 105.202 21.1359V35.8213H100.099V11.6917H105.202V14.4678Z" fill="#212322"/>
<path fill-rule="evenodd" clip-rule="evenodd" d="M43.8401 28.6677C41.8569 30.485 39.625 31.3678 37.0148 31.3678C33.0035 31.3678 30.3242 29.5643 29.4311 26.2786H47.7701L47.8496 25.4891C48.2711 21.3 47.2432 17.5599 44.9526 14.9583C42.8381 12.5554 39.7338 11.2322 36.2132 11.2322C29.21 11.2322 24.126 16.4785 24.126 23.7098C24.126 30.9411 29.3412 36.2773 37.1029 36.2773C40.6753 36.2773 43.6397 35.1682 46.4313 32.7878L46.9703 32.3265L44.3911 28.1615L43.8383 28.666L43.8401 28.6677ZM36.2132 16.1451C39.7684 16.1451 42.154 18.111 42.8018 21.5539H29.3447C30.1082 18.1594 32.6528 16.1451 36.2115 16.1451H36.2132Z" fill="#212322"/>
<path fill-rule="evenodd" clip-rule="evenodd" d="M84.5656 31.3678C87.1758 31.3678 89.4077 30.485 91.3909 28.6677L91.3892 28.666L91.942 28.1615L94.5211 32.3265L93.9821 32.7878C91.1905 35.1682 88.2261 36.2773 84.6537 36.2773C76.8921 36.2773 71.6768 30.9411 71.6768 23.7098C71.6768 16.4785 76.7608 11.2322 83.764 11.2322C87.2847 11.2322 90.389 12.5554 92.5034 14.9583C94.7941 17.5599 95.8219 21.3 95.4004 25.4891L95.3209 26.2786H76.9819C77.875 29.5643 80.5544 31.3678 84.5656 31.3678ZM90.3527 21.5539C89.7049 18.111 87.3192 16.1451 83.764 16.1451H83.7623C80.2037 16.1451 77.6591 18.1594 76.8955 21.5539H90.3527Z" fill="#212322"/>
</g>
<defs>
<clipPath id="clip0_4007_1253">
<rect width="115" height="40" fill="white"/>
</clipPath>
</defs>
</svg>
