<svg width="16" height="16" viewBox="0 0 16 16" fill="none" xmlns="http://www.w3.org/2000/svg">
<path d="M4.21982 11.7803C3.92693 11.4874 3.92693 11.0126 4.21982 10.7197L9.3735 5.566L6.48297 5.66694C6.06901 5.6814 5.72171 5.35753 5.70725 4.94357C5.69279 4.52961 6.01666 4.18231 6.43062 4.16785L11.2164 4.00073C11.2276 4.00024 11.2388 3.99999 11.2502 4C11.4563 3.99987 11.6443 4.08354 11.7805 4.21968C11.8589 4.29801 11.9201 4.39371 11.9578 4.50082C11.9853 4.57884 12.0002 4.66263 12.0002 4.74966C12.0002 4.76109 11.9999 4.77247 11.9994 4.78378L11.8323 9.56954C11.8179 9.9835 11.4706 10.3074 11.0566 10.2929C10.6426 10.2785 10.3188 9.93116 10.3332 9.51719L10.4342 6.62666L5.28048 11.7803C4.98759 12.0732 4.51272 12.0732 4.21982 11.7803Z" fill="#BBC3C3"/>
</svg>
