<svg width="16" height="16" viewBox="0 0 16 16" fill="none" xmlns="http://www.w3.org/2000/svg">
<path d="M3 1C3 0.447715 3.44772 0 4 0H11C12.6569 0 14 1.34315 14 3V13C14 14.6569 12.6569 16 11 16H4C3.44772 16 3 15.5523 3 15C3 14.4477 3.44772 14 4 14H11C11.5523 14 12 13.5523 12 13V3C12 2.44772 11.5523 2 11 2H4C3.44772 2 3 1.55228 3 1Z" fill="#212322"/>
<path d="M0 8C0 7.44772 0.447715 7 1 7L7.58606 7L6.29332 5.70705C5.90283 5.31649 5.90288 4.68333 6.29344 4.29284C6.684 3.90234 7.31716 3.90239 7.70765 4.29295L10.7072 7.29295C11.0976 7.68348 11.0976 8.3166 10.7071 8.70711L7.70711 11.7071C7.31658 12.0976 6.68342 12.0976 6.29289 11.7071C5.90237 11.3166 5.90237 10.6834 6.29289 10.2929L7.58579 9L1 9C0.447715 9 0 8.55228 0 8Z" fill="#212322"/>
</svg>
