<svg width="16" height="16" viewBox="0 0 16 16" fill="none" xmlns="http://www.w3.org/2000/svg">
<path fill-rule="evenodd" clip-rule="evenodd" d="M12.4031 3.68068C12.8207 4.54102 13.0549 5.50689 13.0549 6.52746C13.0549 7.93719 12.608 9.24255 11.8482 10.3096L15.2307 13.6922C15.6556 14.1171 15.6556 14.8059 15.2307 15.2307C14.8059 15.6556 14.1171 15.6556 13.6922 15.2307L10.31 11.8485C9.89731 12.1426 9.45814 12.383 9.00209 12.5695C8.24368 12.8805 7.41376 13.0528 6.54385 13.0549C6.53838 13.0549 6.53292 13.0549 6.52745 13.0549C6.52471 13.0549 6.52197 13.0549 6.51923 13.0549C4.79063 13.0528 3.21946 12.3787 2.05285 11.2799C1.95597 11.1887 1.86187 11.0945 1.77071 10.9975C1.23016 10.4229 0.813371 9.77435 0.520351 9.08565C0.185378 8.30007 0 7.43542 0 6.52746C0 5.61916 0.185519 4.7542 0.520731 3.96838C0.813732 3.28001 1.23039 2.63174 1.77071 2.0574C1.86188 1.96043 1.95598 1.86624 2.05286 1.77499C2.63802 1.22343 3.30012 0.800422 4.00331 0.505951C4.77979 0.18007 5.63259 0 6.52745 0C7.40306 0 8.23841 0.172408 9.00139 0.485129C9.78055 0.803752 10.5106 1.27933 11.1431 1.91185C11.6734 2.44218 12.0934 3.04145 12.4031 3.68068ZM3.56736 9.71725C4.83846 10.8984 6.64378 11.179 8.16868 10.559C9.7585 9.9111 10.8791 8.35014 10.8791 6.52746C10.8791 6.04503 10.7995 5.56322 10.6406 5.10306C10.2305 3.91873 9.32338 2.9665 8.16868 2.49595C7.10249 2.06245 5.8992 2.06921 4.83728 2.51624C4.36584 2.71513 3.93676 2.9947 3.56736 3.33767C3.52786 3.37437 3.48888 3.41194 3.45044 3.45039C3.40952 3.49131 3.36959 3.53284 3.33064 3.57495C2.99975 3.93304 2.72828 4.34683 2.53187 4.80069C2.05721 5.89992 2.05721 7.15501 2.53187 8.25423C2.7288 8.70928 3.00118 9.12407 3.33325 9.4828C3.37137 9.52395 3.41043 9.56453 3.45044 9.60454C3.48888 9.64298 3.52786 9.68055 3.56736 9.71725Z" fill="#0071CE"/>
</svg>
